<mxfile host="app.diagrams.net" modified="2020-07-19T04:44:42.673Z" agent="5.0 (Macintosh)" etag="XldaCCl8CJAYo2Ub3Rfl" version="13.4.5" type="github">
  <diagram id="RX6UZPpf96-W6T8WSHyz" name="Page-1">
    <mxGraphModel dx="1775" dy="505" grid="0" gridSize="10" guides="1" tooltips="1" connect="1" arrows="1" fold="1" page="1" pageScale="1" pageWidth="850" pageHeight="1100" background="#F2F2F2" math="0" shadow="0">
      <root>
        <mxCell id="0" />
        <mxCell id="1" parent="0" />
        <mxCell id="kO-SMWALJu-SpsKxp4or-15" style="edgeStyle=orthogonalEdgeStyle;rounded=0;orthogonalLoop=1;jettySize=auto;html=1;entryX=0.5;entryY=1;entryDx=0;entryDy=0;startArrow=none;startFill=0;" parent="1" source="kO-SMWALJu-SpsKxp4or-2" target="kO-SMWALJu-SpsKxp4or-9" edge="1">
          <mxGeometry relative="1" as="geometry" />
        </mxCell>
        <mxCell id="kO-SMWALJu-SpsKxp4or-2" value="&lt;div&gt;Unlock access with key challenge&lt;/div&gt;" style="shape=hexagon;perimeter=hexagonPerimeter2;whiteSpace=wrap;html=1;fixedSize=1;rotation=-1;fillColor=#d5e8d4;strokeColor=#82b366;" parent="1" vertex="1">
          <mxGeometry x="660" y="380" width="120" height="80" as="geometry" />
        </mxCell>
        <mxCell id="kO-SMWALJu-SpsKxp4or-16" style="edgeStyle=orthogonalEdgeStyle;rounded=0;orthogonalLoop=1;jettySize=auto;html=1;entryX=0.032;entryY=0.613;entryDx=0;entryDy=0;entryPerimeter=0;startArrow=none;startFill=0;exitX=0.997;exitY=0.606;exitDx=0;exitDy=0;exitPerimeter=0;" parent="1" source="EpeTJIBKWnpgla9w4W2G-5" target="kO-SMWALJu-SpsKxp4or-2" edge="1">
          <mxGeometry relative="1" as="geometry">
            <mxPoint x="620" y="430.01875030973156" as="sourcePoint" />
            <Array as="points">
              <mxPoint x="628" y="430" />
            </Array>
          </mxGeometry>
        </mxCell>
        <mxCell id="kO-SMWALJu-SpsKxp4or-18" style="edgeStyle=elbowEdgeStyle;rounded=0;orthogonalLoop=1;jettySize=auto;html=1;startArrow=none;startFill=0;elbow=vertical;strokeColor=none;" parent="1" source="EpeTJIBKWnpgla9w4W2G-5" edge="1">
          <mxGeometry relative="1" as="geometry">
            <Array as="points" />
            <mxPoint x="380" y="290" as="targetPoint" />
          </mxGeometry>
        </mxCell>
        <mxCell id="kO-SMWALJu-SpsKxp4or-21" style="edgeStyle=elbowEdgeStyle;rounded=0;orthogonalLoop=1;jettySize=auto;elbow=vertical;html=1;startArrow=classic;startFill=1;endArrow=classic;endFill=1;entryX=0;entryY=0.5;entryDx=0;entryDy=0;exitX=0.511;exitY=0.959;exitDx=0;exitDy=0;exitPerimeter=0;" parent="1" source="EpeTJIBKWnpgla9w4W2G-3" target="EpeTJIBKWnpgla9w4W2G-5" edge="1">
          <mxGeometry relative="1" as="geometry">
            <mxPoint x="510" y="420" as="targetPoint" />
            <Array as="points">
              <mxPoint x="460" y="420" />
              <mxPoint x="430" y="410" />
            </Array>
            <mxPoint x="380" y="370" as="sourcePoint" />
          </mxGeometry>
        </mxCell>
        <mxCell id="kO-SMWALJu-SpsKxp4or-22" style="edgeStyle=elbowEdgeStyle;rounded=0;orthogonalLoop=1;jettySize=auto;elbow=vertical;html=1;startArrow=classic;startFill=1;endArrow=classic;endFill=1;entryX=0;entryY=0.611;entryDx=0;entryDy=0;entryPerimeter=0;exitX=0.506;exitY=0.095;exitDx=0;exitDy=0;exitPerimeter=0;" parent="1" source="EpeTJIBKWnpgla9w4W2G-4" target="EpeTJIBKWnpgla9w4W2G-5" edge="1">
          <mxGeometry relative="1" as="geometry">
            <mxPoint x="500" y="430" as="targetPoint" />
            <Array as="points">
              <mxPoint x="460" y="430" />
            </Array>
            <mxPoint x="380" y="450" as="sourcePoint" />
          </mxGeometry>
        </mxCell>
        <mxCell id="kO-SMWALJu-SpsKxp4or-6" value="Textile&#39;s server which is running a ThreadDB Daemon" style="text;whiteSpace=wrap;html=1;" parent="1" vertex="1">
          <mxGeometry x="190" y="460" width="125" height="70" as="geometry" />
        </mxCell>
        <mxCell id="kO-SMWALJu-SpsKxp4or-7" value="&lt;div&gt;Syncs P2P with other daemons. Uses GoLang. Can run on server or desktop&lt;br&gt;&lt;/div&gt;" style="text;whiteSpace=wrap;html=1;" parent="1" vertex="1">
          <mxGeometry x="195" y="300" width="125" height="85" as="geometry" />
        </mxCell>
        <mxCell id="kO-SMWALJu-SpsKxp4or-17" style="edgeStyle=orthogonalEdgeStyle;rounded=0;orthogonalLoop=1;jettySize=auto;html=1;startArrow=none;startFill=0;" parent="1" source="kO-SMWALJu-SpsKxp4or-9" target="EpeTJIBKWnpgla9w4W2G-5" edge="1">
          <mxGeometry relative="1" as="geometry">
            <Array as="points">
              <mxPoint x="650" y="300" />
              <mxPoint x="650" y="415" />
            </Array>
            <mxPoint x="600" y="415" as="targetPoint" />
          </mxGeometry>
        </mxCell>
        <mxCell id="kO-SMWALJu-SpsKxp4or-9" value="&lt;div&gt;ThreadDB&lt;/div&gt;" style="rhombus;whiteSpace=wrap;html=1;fillColor=#f8cecc;strokeColor=#b85450;" parent="1" vertex="1">
          <mxGeometry x="680" y="260" width="80" height="80" as="geometry" />
        </mxCell>
        <mxCell id="kO-SMWALJu-SpsKxp4or-10" value="Interacts with a local ThreadDB instance" style="text;whiteSpace=wrap;html=1;" parent="1" vertex="1">
          <mxGeometry x="510" y="465" width="120" height="40" as="geometry" />
        </mxCell>
        <mxCell id="kO-SMWALJu-SpsKxp4or-24" value="sync" style="text;whiteSpace=wrap;html=1;" parent="1" vertex="1">
          <mxGeometry x="440" y="390" width="30" height="20" as="geometry" />
        </mxCell>
        <mxCell id="EpeTJIBKWnpgla9w4W2G-3" value="&lt;div&gt;Thread DB &lt;br&gt;&lt;/div&gt;&lt;div&gt;Daemon&lt;/div&gt;" style="ellipse;shape=cloud;whiteSpace=wrap;html=1;fillColor=#dae8fc;strokeColor=#6c8ebf;" parent="1" vertex="1">
          <mxGeometry x="320" y="300" width="120" height="80" as="geometry" />
        </mxCell>
        <mxCell id="EpeTJIBKWnpgla9w4W2G-4" value="&lt;div&gt;Textile Hub&lt;/div&gt;" style="ellipse;shape=cloud;whiteSpace=wrap;html=1;fillColor=#dae8fc;strokeColor=#6c8ebf;" parent="1" vertex="1">
          <mxGeometry x="320" y="440" width="120" height="80" as="geometry" />
        </mxCell>
        <mxCell id="EpeTJIBKWnpgla9w4W2G-5" value="&lt;div&gt;Local ThreadDB Database&lt;/div&gt;" style="shape=cylinder;whiteSpace=wrap;html=1;boundedLbl=1;backgroundOutline=1;fillColor=#fff2cc;strokeColor=#d6b656;" parent="1" vertex="1">
          <mxGeometry x="530" y="375" width="67.5" height="90" as="geometry" />
        </mxCell>
        <mxCell id="EpeTJIBKWnpgla9w4W2G-6" style="edgeStyle=elbowEdgeStyle;rounded=0;orthogonalLoop=1;jettySize=auto;html=1;startArrow=none;startFill=0;elbow=vertical;strokeColor=none;" parent="1" target="EpeTJIBKWnpgla9w4W2G-5" edge="1">
          <mxGeometry relative="1" as="geometry">
            <Array as="points">
              <mxPoint x="560" y="260" />
            </Array>
            <mxPoint x="560" y="400" as="sourcePoint" />
            <mxPoint x="380" y="290" as="targetPoint" />
          </mxGeometry>
        </mxCell>
        <mxCell id="EpeTJIBKWnpgla9w4W2G-9" style="edgeStyle=orthogonalEdgeStyle;rounded=0;orthogonalLoop=1;jettySize=auto;html=1;entryX=0.5;entryY=1;entryDx=0;entryDy=0;startArrow=none;startFill=0;" parent="1" source="EpeTJIBKWnpgla9w4W2G-10" target="EpeTJIBKWnpgla9w4W2G-14" edge="1">
          <mxGeometry relative="1" as="geometry" />
        </mxCell>
        <mxCell id="EpeTJIBKWnpgla9w4W2G-10" value="&lt;div&gt;Unlock access with key challenge&lt;/div&gt;" style="shape=hexagon;perimeter=hexagonPerimeter2;whiteSpace=wrap;html=1;fixedSize=1;rotation=-1;fillColor=#d5e8d4;strokeColor=#82b366;" parent="1" vertex="1">
          <mxGeometry x="-240" y="425" width="120" height="80" as="geometry" />
        </mxCell>
        <mxCell id="EpeTJIBKWnpgla9w4W2G-11" style="edgeStyle=orthogonalEdgeStyle;rounded=0;orthogonalLoop=1;jettySize=auto;html=1;entryX=0.032;entryY=0.613;entryDx=0;entryDy=0;entryPerimeter=0;startArrow=none;startFill=0;exitX=0.997;exitY=0.606;exitDx=0;exitDy=0;exitPerimeter=0;" parent="1" source="EpeTJIBKWnpgla9w4W2G-16" target="EpeTJIBKWnpgla9w4W2G-10" edge="1">
          <mxGeometry relative="1" as="geometry">
            <mxPoint x="-280" y="475.01875030973156" as="sourcePoint" />
            <Array as="points">
              <mxPoint x="-272" y="475" />
            </Array>
          </mxGeometry>
        </mxCell>
        <mxCell id="EpeTJIBKWnpgla9w4W2G-12" value="&lt;div&gt;An open protocol&lt;/div&gt;&lt;div&gt;&lt;br&gt;&lt;/div&gt;" style="text;whiteSpace=wrap;html=1;" parent="1" vertex="1">
          <mxGeometry x="-230" y="275" width="120" height="30" as="geometry" />
        </mxCell>
        <mxCell id="EpeTJIBKWnpgla9w4W2G-13" style="edgeStyle=orthogonalEdgeStyle;rounded=0;orthogonalLoop=1;jettySize=auto;html=1;startArrow=none;startFill=0;" parent="1" source="EpeTJIBKWnpgla9w4W2G-14" target="EpeTJIBKWnpgla9w4W2G-16" edge="1">
          <mxGeometry relative="1" as="geometry">
            <Array as="points">
              <mxPoint x="-250" y="345" />
              <mxPoint x="-250" y="460" />
            </Array>
            <mxPoint x="-300" y="460" as="targetPoint" />
          </mxGeometry>
        </mxCell>
        <mxCell id="EpeTJIBKWnpgla9w4W2G-14" value="&lt;div&gt;ThreadDB&lt;/div&gt;" style="rhombus;whiteSpace=wrap;html=1;fillColor=#f8cecc;strokeColor=#b85450;" parent="1" vertex="1">
          <mxGeometry x="-220" y="305" width="80" height="80" as="geometry" />
        </mxCell>
        <mxCell id="EpeTJIBKWnpgla9w4W2G-15" value="Interacts with a local ThreadDB instance" style="text;whiteSpace=wrap;html=1;" parent="1" vertex="1">
          <mxGeometry x="-390" y="510" width="120" height="40" as="geometry" />
        </mxCell>
        <mxCell id="EpeTJIBKWnpgla9w4W2G-16" value="&lt;div&gt;Local ThreadDB Database&lt;/div&gt;" style="shape=cylinder;whiteSpace=wrap;html=1;boundedLbl=1;backgroundOutline=1;fillColor=#fff2cc;strokeColor=#d6b656;" parent="1" vertex="1">
          <mxGeometry x="-370" y="420" width="67.5" height="90" as="geometry" />
        </mxCell>
        <mxCell id="EpeTJIBKWnpgla9w4W2G-17" style="edgeStyle=elbowEdgeStyle;rounded=0;orthogonalLoop=1;jettySize=auto;html=1;startArrow=none;startFill=0;elbow=vertical;strokeColor=none;" parent="1" target="EpeTJIBKWnpgla9w4W2G-16" edge="1">
          <mxGeometry relative="1" as="geometry">
            <Array as="points">
              <mxPoint x="-340" y="305" />
            </Array>
            <mxPoint x="-340" y="445" as="sourcePoint" />
            <mxPoint x="-520" y="335" as="targetPoint" />
          </mxGeometry>
        </mxCell>
        <mxCell id="EpeTJIBKWnpgla9w4W2G-18" style="edgeStyle=orthogonalEdgeStyle;rounded=0;orthogonalLoop=1;jettySize=auto;html=1;entryX=0.5;entryY=1;entryDx=0;entryDy=0;startArrow=none;startFill=0;" parent="1" source="EpeTJIBKWnpgla9w4W2G-19" target="EpeTJIBKWnpgla9w4W2G-28" edge="1">
          <mxGeometry relative="1" as="geometry" />
        </mxCell>
        <mxCell id="EpeTJIBKWnpgla9w4W2G-19" value="&lt;div&gt;Unlock access with key challenge&lt;/div&gt;" style="shape=hexagon;perimeter=hexagonPerimeter2;whiteSpace=wrap;html=1;fixedSize=1;rotation=-1;fillColor=#d5e8d4;strokeColor=#82b366;" parent="1" vertex="1">
          <mxGeometry x="670" y="730" width="120" height="80" as="geometry" />
        </mxCell>
        <mxCell id="EpeTJIBKWnpgla9w4W2G-20" style="edgeStyle=orthogonalEdgeStyle;rounded=0;orthogonalLoop=1;jettySize=auto;html=1;entryX=0.021;entryY=0.592;entryDx=0;entryDy=0;entryPerimeter=0;startArrow=none;startFill=0;exitX=0.947;exitY=0.605;exitDx=0;exitDy=0;exitPerimeter=0;" parent="1" source="EpeTJIBKWnpgla9w4W2G-32" target="EpeTJIBKWnpgla9w4W2G-19" edge="1">
          <mxGeometry relative="1" as="geometry">
            <mxPoint x="630" y="780.0187503097316" as="sourcePoint" />
            <Array as="points" />
          </mxGeometry>
        </mxCell>
        <mxCell id="EpeTJIBKWnpgla9w4W2G-21" style="edgeStyle=elbowEdgeStyle;rounded=0;orthogonalLoop=1;jettySize=auto;html=1;startArrow=none;startFill=0;elbow=vertical;strokeColor=none;" parent="1" source="EpeTJIBKWnpgla9w4W2G-33" edge="1">
          <mxGeometry relative="1" as="geometry">
            <Array as="points" />
            <mxPoint x="390" y="640" as="targetPoint" />
          </mxGeometry>
        </mxCell>
        <mxCell id="EpeTJIBKWnpgla9w4W2G-24" value="Textile&#39;s server which is running a ThreadDB Daemon and local ThreadDB instance" style="text;whiteSpace=wrap;html=1;" parent="1" vertex="1">
          <mxGeometry x="483" y="814" width="125" height="70" as="geometry" />
        </mxCell>
        <mxCell id="EpeTJIBKWnpgla9w4W2G-27" style="edgeStyle=orthogonalEdgeStyle;rounded=0;orthogonalLoop=1;jettySize=auto;html=1;startArrow=none;startFill=0;entryX=0.905;entryY=0.355;entryDx=0;entryDy=0;entryPerimeter=0;" parent="1" source="EpeTJIBKWnpgla9w4W2G-28" target="EpeTJIBKWnpgla9w4W2G-32" edge="1">
          <mxGeometry relative="1" as="geometry">
            <Array as="points">
              <mxPoint x="660" y="650" />
              <mxPoint x="660" y="758" />
              <mxPoint x="584" y="758" />
            </Array>
            <mxPoint x="610" y="765" as="targetPoint" />
          </mxGeometry>
        </mxCell>
        <mxCell id="EpeTJIBKWnpgla9w4W2G-28" value="&lt;div&gt;ThreadDB&lt;/div&gt;" style="rhombus;whiteSpace=wrap;html=1;fillColor=#f8cecc;strokeColor=#b85450;" parent="1" vertex="1">
          <mxGeometry x="690" y="610" width="80" height="80" as="geometry" />
        </mxCell>
        <mxCell id="EpeTJIBKWnpgla9w4W2G-29" value="Stores nothing locally, just posts updates to and receives updates from  the remote db " style="text;whiteSpace=wrap;html=1;" parent="1" vertex="1">
          <mxGeometry x="295" y="815" width="120" height="75" as="geometry" />
        </mxCell>
        <mxCell id="EpeTJIBKWnpgla9w4W2G-30" value="relay changes" style="text;whiteSpace=wrap;html=1;" parent="1" vertex="1">
          <mxGeometry x="394" y="740" width="80" height="20" as="geometry" />
        </mxCell>
        <mxCell id="EpeTJIBKWnpgla9w4W2G-32" value="&lt;div&gt;Textile Hub&lt;/div&gt;" style="ellipse;shape=cloud;whiteSpace=wrap;html=1;fillColor=#dae8fc;strokeColor=#6c8ebf;" parent="1" vertex="1">
          <mxGeometry x="475" y="730" width="120" height="80" as="geometry" />
        </mxCell>
        <mxCell id="EpeTJIBKWnpgla9w4W2G-36" style="edgeStyle=orthogonalEdgeStyle;rounded=0;orthogonalLoop=1;jettySize=auto;html=1;startArrow=classic;startFill=1;endArrow=classic;endFill=1;" parent="1" source="EpeTJIBKWnpgla9w4W2G-33" target="EpeTJIBKWnpgla9w4W2G-32" edge="1">
          <mxGeometry relative="1" as="geometry" />
        </mxCell>
        <mxCell id="EpeTJIBKWnpgla9w4W2G-33" value="Hub Client" style="shape=cylinder;whiteSpace=wrap;html=1;boundedLbl=1;backgroundOutline=1;fillColor=#fff2cc;strokeColor=#d6b656;" parent="1" vertex="1">
          <mxGeometry x="320" y="725" width="67.5" height="90" as="geometry" />
        </mxCell>
        <mxCell id="EpeTJIBKWnpgla9w4W2G-34" style="edgeStyle=elbowEdgeStyle;rounded=0;orthogonalLoop=1;jettySize=auto;html=1;startArrow=none;startFill=0;elbow=vertical;strokeColor=none;" parent="1" target="EpeTJIBKWnpgla9w4W2G-33" edge="1">
          <mxGeometry relative="1" as="geometry">
            <Array as="points">
              <mxPoint x="570" y="610" />
            </Array>
            <mxPoint x="570" y="750" as="sourcePoint" />
            <mxPoint x="390" y="640" as="targetPoint" />
          </mxGeometry>
        </mxCell>
        <mxCell id="cNQVmxcZQS4HhnxyCYWw-1" value="&lt;p style=&quot;line-height: 150%&quot;&gt;ThreadDB is a database built on IPFS. It is an open protocol, that can be used by anyone, without going through Textile servers. It has a built authentication method that only let&#39;s users with permission access a Thread (database). Threads are registered with a public key. To unlock the thread, you must prove you own the private key associated with that public key by answering a &#39;challenge&#39;.&lt;/p&gt;" style="text;whiteSpace=wrap;html=1;labelBackgroundColor=none;rounded=0;spacingTop=-10;fillColor=#6a00ff;strokeColor=#3700CC;fontColor=#ffffff;spacingBottom=0;spacing=0;spacingLeft=10;spacingRight=10;strokeWidth=3;" vertex="1" parent="1">
          <mxGeometry x="-390" y="560" width="350" height="140" as="geometry" />
        </mxCell>
        <mxCell id="cNQVmxcZQS4HhnxyCYWw-2" value="&lt;p style=&quot;line-height: 150%&quot;&gt;Threads can be pinned (uploaded, and continuously served) on the IPFS in several locations for robustness. Also, two users with shared acces, or one user on different devices can sync changes to the same Thread. ThreadDB Daemons can handle these syncs, and can even communicate P2P without a wider internet connection&lt;/p&gt;" style="text;whiteSpace=wrap;html=1;labelBackgroundColor=none;rounded=0;spacingTop=-10;strokeColor=#3700CC;fontColor=#ffffff;spacingBottom=0;spacing=0;fillColor=#6a00ff;strokeWidth=3;spacingLeft=10;spacingRight=10;" vertex="1" parent="1">
          <mxGeometry x="272" y="159" width="384" height="110" as="geometry" />
        </mxCell>
      </root>
    </mxGraphModel>
  </diagram>
</mxfile>
